# This file uses centimeters as units for non-parametric coordinates.

mtllib aiguille.mtl
g default
v 0.999290 -3.154388 -0.400116
v 0.998329 -3.079330 -0.793854
v 0.978596 -1.533569 -0.396881
v 0.979076 -1.571121 -0.200104
v 0.996746 -2.955490 -1.175079
v 0.977810 -1.471634 -0.587555
v 0.994572 -2.784851 -1.537811
v 0.976719 -1.386246 -0.768951
v 0.991825 -2.569977 -1.876251
v 0.975353 -1.278915 -0.938110
v 0.988567 -2.314514 -2.185150
v 0.973717 -1.151199 -1.092621
v 0.984840 -2.022293 -2.459564
v 0.971855 -1.005096 -1.229767
v 0.980698 -1.698029 -2.695160
v 0.969784 -0.842957 -1.347565
v 0.976215 -1.346802 -2.888275
v 0.967537 -0.667297 -1.444122
v 0.971455 -0.974106 -3.035858
v 0.965164 -0.480911 -1.517914
v 0.966503 -0.585938 -3.135529
v 0.962685 -0.286972 -1.567780
v 0.961426 -0.188187 -3.185760
v 0.960144 -0.087982 -1.592865
v 0.956310 0.212646 -3.185760
v 0.957596 0.112366 -1.592865
v 0.951233 0.610306 -3.135529
v 0.955051 0.311356 -1.567780
v 0.946270 0.998566 -3.035858
v 0.952568 0.505264 -1.517914
v 0.941513 1.371201 -2.888275
v 0.950191 0.691803 -1.444122
v 0.937035 1.722504 -2.695160
v 0.947952 0.867355 -1.347565
v 0.932892 2.046753 -2.459564
v 0.945881 1.029434 -1.229767
v 0.929161 2.338928 -2.185150
v 0.944012 1.175537 -1.092621
v 0.925903 2.594437 -1.876251
v 0.942383 1.303253 -0.938110
v 0.923161 2.809250 -1.537811
v 0.941013 1.410767 -0.768890
v 0.920982 2.979843 -1.175079
v 0.939926 1.496017 -0.587555
v 0.919399 3.103714 -0.793854
v 0.939133 1.557983 -0.396912
v 0.918442 3.178848 -0.400116
v 0.938656 1.595551 -0.200043
v 0.918125 3.204025 -0.000031
v 0.938496 1.608109 0.000000
v 0.918442 3.178848 0.400085
v 0.938656 1.595551 0.200012
v 0.919399 3.103714 0.793793
v 0.939133 1.558029 0.396881
v 0.920982 2.979843 1.175018
v 0.939926 1.496048 0.587524
v 0.923161 2.809250 1.537811
v 0.941010 1.410706 0.768890
v 0.925903 2.594437 1.876221
v 0.942383 1.303314 0.938110
v 0.929161 2.338898 2.185089
v 0.944012 1.175537 1.092560
v 0.932892 2.046753 2.459503
v 0.945881 1.029434 1.229767
v 0.937035 1.722504 2.695160
v 0.947952 0.867355 1.347565
v 0.941513 1.371201 2.888245
v 0.950191 0.691711 1.444092
v 0.946270 0.998566 3.035858
v 0.952572 0.505417 1.517914
v 0.951233 0.610306 3.135529
v 0.955051 0.311142 1.567749
v 0.956310 0.212646 3.185760
v 0.957592 0.112534 1.592865
v 0.961426 -0.188248 3.185760
v 0.960144 -0.088074 1.592865
v 0.966503 -0.585892 3.135529
v 0.962685 -0.286880 1.567749
v 0.971458 -0.974152 3.035858
v 0.965164 -0.481003 1.517914
v 0.976215 -1.346771 2.888245
v 0.967537 -0.667297 1.444122
v 0.980698 -1.698044 2.695129
v 0.969780 -0.842911 1.347565
v 0.984840 -2.022293 2.459503
v 0.971855 -1.005096 1.229767
v 0.988567 -2.314514 2.185089
v 0.973717 -1.151138 1.092560
v 0.991825 -2.570023 1.876221
v 0.975353 -1.278915 0.938141
v 0.994576 -2.784805 1.537781
v 0.976719 -1.386246 0.768860
v 0.996746 -2.955414 1.175018
v 0.977810 -1.471634 0.587555
v 0.998329 -3.079330 0.793793
v 0.978596 -1.533524 0.396881
v 0.999290 -3.154388 0.400116
v 0.979076 -1.571152 0.200012
v 0.999607 -3.179535 -0.000031
v 0.979244 -1.583679 0.000031
v 0.958866 0.012207 -0.000061
v -0.918434 -3.178879 -0.400116
v -0.919395 -3.103806 -0.793854
v -0.920975 -2.979980 -1.175079
v -0.923153 -2.809311 -1.537811
v -0.925896 -2.594452 -1.876251
v -0.929157 -2.339035 -2.185150
v -0.932888 -2.046829 -2.459564
v -0.937027 -1.722504 -2.695160
v -0.941509 -1.371262 -2.888275
v -0.946270 -0.998627 -3.035858
v -0.951221 -0.610367 -3.135529
v -0.956303 -0.212662 -3.185760
v -0.961418 0.188141 -3.185760
v -0.966496 0.585831 -3.135529
v -0.971455 0.974091 -3.035858
v -0.976212 1.346695 -2.888275
v -0.980694 1.698029 -2.695160
v -0.984833 2.022278 -2.459564
v -0.988564 2.314453 -2.185150
v -0.991825 2.569916 -1.876251
v -0.994564 2.784744 -1.537811
v -0.996746 2.955338 -1.175079
v -0.998325 3.079239 -0.793854
v -0.999287 3.154358 -0.400116
v -0.999607 3.179550 -0.000031
v -0.999287 3.154358 0.400085
v -0.998325 3.079239 0.793793
v -0.996746 2.955338 1.175018
v -0.994564 2.784744 1.537811
v -0.991825 2.569916 1.876221
v -0.988564 2.314453 2.185089
v -0.984833 2.022278 2.459503
v -0.980694 1.698029 2.695160
v -0.976212 1.346695 2.888245
v -0.971455 0.974091 3.035858
v -0.966496 0.585831 3.135529
v -0.961418 0.188141 3.185760
v -0.956303 -0.212662 3.185760
v -0.951221 -0.610367 3.135529
v -0.946270 -0.998627 3.035858
v -0.941509 -1.371262 2.888245
v -0.937027 -1.722504 2.695129
v -0.932888 -2.046829 2.459503
v -0.929157 -2.339035 2.185089
v -0.925896 -2.594452 1.876221
v -0.923153 -2.809311 1.537781
v -0.920975 -2.979904 1.175018
v -0.919395 -3.103806 0.793793
v -0.918434 -3.178879 0.400085
v -0.918114 -3.204025 -0.000031
v -0.872448 -0.378784 -29.168915
v 0.552219 -0.378784 -29.168915
v 0.552219 2.103943 0.543182
v 0.552219 1.087540 1.326141
v -0.872448 2.103943 0.543182
v 0.552219 -1.961609 0.543182
v -0.872448 -1.961609 0.543182
v 0.552219 0.071167 1.672211
v 0.552219 -0.945221 1.326141
vt 0.961531 0.562134
vt 0.961946 0.562213
vt 0.961527 0.563842
vt 0.961320 0.563803
vt 0.962347 0.562344
vt 0.961728 0.563908
vt 0.962730 0.562524
vt 0.961920 0.563998
vt 0.963086 0.562750
vt 0.962098 0.564111
vt 0.963412 0.563019
vt 0.962261 0.564245
vt 0.963701 0.563327
vt 0.962405 0.564399
vt 0.963949 0.563669
vt 0.962529 0.564570
vt 0.964153 0.564039
vt 0.962631 0.564755
vt 0.964308 0.564432
vt 0.962709 0.564952
vt 0.964413 0.564841
vt 0.962761 0.565156
vt 0.964466 0.565260
vt 0.962788 0.565366
vt 0.964466 0.565683
vt 0.962788 0.565577
vt 0.964413 0.566101
vt 0.962761 0.565787
vt 0.964308 0.566511
vt 0.962709 0.565991
vt 0.964153 0.566903
vt 0.962631 0.566187
vt 0.963949 0.567274
vt 0.962529 0.566372
vt 0.963701 0.567615
vt 0.962405 0.566543
vt 0.963412 0.567923
vt 0.962261 0.566697
vt 0.963086 0.568192
vt 0.962098 0.566832
vt 0.962730 0.568419
vt 0.961920 0.566945
vt 0.962347 0.568599
vt 0.961728 0.567035
vt 0.961946 0.568729
vt 0.961527 0.567100
vt 0.961531 0.568808
vt 0.961320 0.567140
vt 0.961109 0.568835
vt 0.961109 0.567153
vt 0.960688 0.568808
vt 0.960898 0.567140
vt 0.960273 0.568729
vt 0.960691 0.567100
vt 0.959871 0.568599
vt 0.960490 0.567035
vt 0.959489 0.568419
vt 0.960299 0.566945
vt 0.959132 0.568192
vt 0.960121 0.566832
vt 0.958807 0.567923
vt 0.959958 0.566697
vt 0.958517 0.567615
vt 0.959813 0.566543
vt 0.958269 0.567274
vt 0.959689 0.566372
vt 0.958066 0.566903
vt 0.959588 0.566187
vt 0.957910 0.566511
vt 0.959510 0.565991
vt 0.957805 0.566101
vt 0.959457 0.565786
vt 0.957752 0.565683
vt 0.959431 0.565577
vt 0.957752 0.565260
vt 0.959431 0.565366
vt 0.957805 0.564841
vt 0.959457 0.565156
vt 0.957910 0.564432
vt 0.959510 0.564952
vt 0.958066 0.564039
vt 0.959587 0.564755
vt 0.958269 0.563669
vt 0.959689 0.564570
vt 0.958517 0.563327
vt 0.959813 0.564399
vt 0.958807 0.563019
vt 0.959958 0.564245
vt 0.959132 0.562750
vt 0.960121 0.564111
vt 0.959489 0.562524
vt 0.960299 0.563998
vt 0.959871 0.562344
vt 0.960490 0.563908
vt 0.960273 0.562213
vt 0.960691 0.563842
vt 0.960688 0.562134
vt 0.960898 0.563803
vt 0.961109 0.562108
vt 0.961109 0.563789
vt 0.961109 0.565471
vt 0.944070 0.564752
vt 0.944082 0.564328
vt 0.946222 0.564326
vt 0.946238 0.564752
vt 0.944092 0.563913
vt 0.946208 0.563910
vt 0.944107 0.563514
vt 0.946188 0.563511
vt 0.944125 0.563143
vt 0.946164 0.563138
vt 0.944147 0.562803
vt 0.946135 0.562798
vt 0.944124 0.562384
vt 0.946155 0.562380
vt 0.944113 0.561956
vt 0.946163 0.561953
vt 0.856163 0.569990
vt 0.856158 0.569611
vt 0.858229 0.569584
vt 0.858234 0.569963
vt 0.856153 0.569208
vt 0.858224 0.569182
vt 0.856148 0.568789
vt 0.858218 0.568763
vt 0.856142 0.568360
vt 0.858213 0.568333
vt 0.856137 0.567927
vt 0.858207 0.567901
vt 0.856131 0.567498
vt 0.858202 0.567471
vt 0.856126 0.567078
vt 0.858196 0.567052
vt 0.856121 0.566676
vt 0.858191 0.566650
vt 0.856116 0.566297
vt 0.858186 0.566271
vt 0.422280 0.567276
vt 0.422289 0.566851
vt 0.424323 0.566848
vt 0.424334 0.567273
vt 0.422308 0.566440
vt 0.424302 0.566434
vt 0.422270 0.566115
vt 0.424323 0.566095
vt 0.422213 0.565769
vt 0.424339 0.565724
vt 0.422211 0.565359
vt 0.424354 0.565324
vt 0.422214 0.564914
vt 0.424364 0.564904
vt 0.422215 0.564472
vt 0.424371 0.564471
vt 0.422212 0.564031
vt 0.424373 0.564031
vt 0.422215 0.563590
vt 0.424371 0.563591
vt 0.422223 0.563156
vt 0.424364 0.563158
vt 0.422237 0.562736
vt 0.424354 0.562739
vt 0.422256 0.562336
vt 0.424340 0.562340
vt 0.422279 0.561963
vt 0.424323 0.561967
vt 0.422308 0.561622
vt 0.424302 0.561628
vt 0.422289 0.561211
vt 0.424323 0.561215
vt 0.422280 0.560786
vt 0.424334 0.560789
vt 0.381166 0.568569
vt 0.381171 0.568189
vt 0.383242 0.568216
vt 0.383237 0.568595
vt 0.381176 0.567787
vt 0.383247 0.567813
vt 0.381181 0.567368
vt 0.383253 0.567394
vt 0.381187 0.566938
vt 0.383258 0.566965
vt 0.381192 0.566505
vt 0.383264 0.566532
vt 0.381198 0.566076
vt 0.383269 0.566102
vt 0.381203 0.565656
vt 0.383274 0.565683
vt 0.381208 0.565254
vt 0.383280 0.565280
vt 0.381213 0.564875
vt 0.383284 0.564901
vt 0.944113 0.568452
vt 0.944124 0.568024
vt 0.946155 0.568028
vt 0.946163 0.568455
vt 0.944147 0.567605
vt 0.946135 0.567611
vt 0.944125 0.567266
vt 0.946164 0.567270
vt 0.944107 0.566894
vt 0.946188 0.566898
vt 0.944092 0.566495
vt 0.946208 0.566498
vt 0.944082 0.566076
vt 0.946222 0.566078
vt 0.944075 0.565644
vt 0.946230 0.565645
vt 0.944072 0.565200
vt 0.946235 0.565201
vt 0.932717 0.507513
vt 0.931646 0.508337
vt 0.930102 0.476209
vt 0.600072 0.135551
vt 0.600072 0.103834
vt 0.601570 0.103840
vt 0.601586 0.135549
vt 0.600072 0.175628
vt 0.600072 0.143887
vt 0.601581 0.143896
vt 0.601568 0.175619
vt 0.930576 0.508702
vt 0.929505 0.508337
vt 0.928434 0.507513
vn 0.999919 0.012765 -0.000006
vn 0.999919 0.012764 -0.000002
vn 0.999919 0.012763 0.000001
vn 0.999919 0.012765 -0.000010
vn 0.999919 0.012761 0.000004
vn 0.999919 0.012761 0.000005
vn 0.999919 0.012761 0.000001
vn 0.999919 0.012761 0.000003
vn 0.999919 0.012763 -0.000003
vn 0.999919 0.012765 -0.000003
vn 0.999919 0.012761 0.000001
vn 0.999919 0.012763 -0.000000
vn 0.999919 0.012764 0.000001
vn 0.999919 0.012763 0.000002
vn 0.999919 0.012770 -0.000003
vn 0.999919 0.012772 -0.000004
vn 0.999919 0.012764 -0.000000
vn 0.999919 0.012763 0.000000
vn 0.999919 0.012762 0.000000
vn 0.999919 0.012761 0.000001
vn 0.999919 0.012765 0.000000
vn 0.999919 0.012767 -0.000000
vn 0.999919 0.012756 0.000000
vn 0.999919 0.012753 0.000000
vn 0.999919 0.012760 -0.000001
vn 0.999919 0.012758 0.000000
vn 0.999918 0.012781 0.000002
vn 0.999918 0.012784 0.000003
vn 0.999919 0.012773 0.000000
vn 0.999918 0.012773 0.000000
vn 0.999919 0.012756 -0.000006
vn 0.999919 0.012754 -0.000006
vn 0.999919 0.012764 -0.000002
vn 0.999919 0.012764 -0.000001
vn 0.999918 0.012772 0.000005
vn 0.999918 0.012773 0.000006
vn 0.999919 0.012764 -0.000000
vn 0.999919 0.012766 0.000000
vn 0.999919 0.012760 -0.000005
vn 0.999919 0.012760 -0.000006
vn 0.999919 0.012763 -0.000002
vn 0.999919 0.012762 -0.000004
vn 0.999919 0.012766 0.000003
vn 0.999919 0.012766 0.000003
vn 0.999919 0.012766 -0.000000
vn 0.999919 0.012766 -0.000001
vn 0.999919 0.012764 -0.000008
vn 0.999919 0.012764 -0.000008
vn 0.999919 0.012764 -0.000000
vn 0.999919 0.012764 0.000000
vn 0.999919 0.012764 0.000007
vn 0.999919 0.012764 0.000007
vn 0.999919 0.012766 0.000000
vn 0.999919 0.012766 0.000000
vn 0.999919 0.012764 0.000001
vn 0.999919 0.012763 0.000003
vn 0.999919 0.012763 0.000001
vn 0.999919 0.012763 0.000003
vn 0.999919 0.012761 0.000001
vn 0.999919 0.012762 0.000001
vn 0.999919 0.012764 0.000001
vn 0.999919 0.012765 0.000000
vn 0.999919 0.012772 -0.000005
vn 0.999919 0.012773 -0.000007
vn 0.999919 0.012763 0.000002
vn 0.999919 0.012763 0.000001
vn 0.999919 0.012761 0.000005
vn 0.999919 0.012761 0.000004
vn 0.999919 0.012772 0.000001
vn 0.999918 0.012771 -0.000000
vn 0.999918 0.012775 -0.000000
vn 0.999918 0.012775 -0.000001
vn 0.999919 0.012761 -0.000000
vn 0.999919 0.012759 -0.000001
vn 0.999919 0.012759 -0.000000
vn 0.999919 0.012756 -0.000000
vn 0.999919 0.012768 -0.000000
vn 0.999918 0.012770 0.000000
vn 0.999919 0.012761 -0.000002
vn 0.999919 0.012760 -0.000003
vn 0.999919 0.012761 -0.000003
vn 0.999919 0.012759 -0.000003
vn 0.999918 0.012770 0.000003
vn 0.999919 0.012772 0.000004
vn 0.999919 0.012767 0.000000
vn 0.999919 0.012767 0.000001
vn 0.999919 0.012760 -0.000002
vn 0.999919 0.012762 -0.000000
vn 0.999919 0.012765 0.000005
vn 0.999919 0.012766 0.000004
vn 0.999919 0.012763 -0.000001
vn 0.999919 0.012762 -0.000003
vn 0.999919 0.012761 -0.000007
vn 0.999919 0.012761 -0.000007
vn 0.999919 0.012764 0.000001
vn 0.999919 0.012763 -0.000002
vn 0.999919 0.012765 0.000006
vn 0.999919 0.012765 0.000009
vn 0.999919 0.012763 0.000000
vn 0.999919 0.012764 0.000000
vn 0.999919 0.012765 0.000000
vn 0.012667 -0.992044 -0.125256
vn 0.012365 -0.968523 -0.248617
vn 0.012365 -0.968523 -0.248617
vn 0.012667 -0.992044 -0.125256
vn 0.011868 -0.929719 -0.368078
vn 0.011868 -0.929719 -0.368079
vn 0.011181 -0.876193 -0.481830
vn 0.011181 -0.876193 -0.481830
vn 0.010327 -0.808936 -0.587806
vn 0.010327 -0.808936 -0.587806
vn 0.009317 -0.728953 -0.684501
vn 0.009317 -0.728952 -0.684502
vn 0.008148 -0.637334 -0.770545
vn 0.008148 -0.637333 -0.770546
vn 0.006841 -0.535758 -0.844344
vn 0.006841 -0.535758 -0.844344
vn 0.005435 -0.425774 -0.904813
vn 0.005435 -0.425775 -0.904813
vn 0.003945 -0.309002 -0.951053
vn 0.003945 -0.309001 -0.951054
vn 0.002390 -0.187321 -0.982296
vn 0.002390 -0.187323 -0.982295
vn 0.000800 -0.062770 -0.998028
vn 0.000800 -0.062770 -0.998028
vn -0.000802 0.062774 -0.998028
vn -0.000802 0.062775 -0.998027
vn -0.002391 0.187324 -0.982295
vn -0.002391 0.187323 -0.982295
vn -0.003945 0.309002 -0.951053
vn -0.003945 0.309001 -0.951054
vn -0.005437 0.425755 -0.904822
vn -0.005437 0.425757 -0.904821
vn -0.006839 0.535737 -0.844357
vn -0.006839 0.535737 -0.844358
vn -0.008135 0.637385 -0.770503
vn -0.008135 0.637385 -0.770503
vn -0.009308 0.728948 -0.684506
vn -0.009308 0.728948 -0.684506
vn -0.010337 0.808936 -0.587806
vn -0.010337 0.808936 -0.587805
vn -0.011199 0.876249 -0.481728
vn -0.011199 0.876250 -0.481727
vn -0.011877 0.929722 -0.368070
vn -0.011877 0.929722 -0.368070
vn -0.012366 0.968489 -0.248751
vn -0.012366 0.968488 -0.248752
vn -0.012665 0.992028 -0.125378
vn -0.012665 0.992028 -0.125378
vn -0.012765 0.999919 0.000000
vn -0.012765 0.999919 0.000000
vn -0.012665 0.992028 0.125378
vn -0.012665 0.992028 0.125378
vn -0.012366 0.968486 0.248761
vn -0.012366 0.968486 0.248761
vn -0.011877 0.929732 0.368044
vn -0.011877 0.929732 0.368044
vn -0.011199 0.876258 0.481712
vn -0.011199 0.876258 0.481711
vn -0.010334 0.808900 0.587855
vn -0.010334 0.808901 0.587854
vn -0.009302 0.728931 0.684524
vn -0.009302 0.728930 0.684525
vn -0.008133 0.637440 0.770457
vn -0.008133 0.637439 0.770458
vn -0.006840 0.535764 0.844340
vn -0.006840 0.535764 0.844340
vn -0.005437 0.425755 0.904822
vn -0.005437 0.425757 0.904821
vn -0.003946 0.309036 0.951042
vn -0.003946 0.309036 0.951042
vn -0.002391 0.187324 0.982295
vn -0.002391 0.187323 0.982295
vn -0.000802 0.062771 0.998028
vn -0.000802 0.062772 0.998028
vn 0.000800 -0.062770 0.998028
vn 0.000800 -0.062773 0.998028
vn 0.002390 -0.187324 0.982295
vn 0.002390 -0.187324 0.982295
vn 0.003945 -0.309033 0.951043
vn 0.003945 -0.309033 0.951043
vn 0.005435 -0.425813 0.904795
vn 0.005435 -0.425813 0.904795
vn 0.006841 -0.535777 0.844332
vn 0.006841 -0.535777 0.844332
vn 0.008147 -0.637361 0.770522
vn 0.008147 -0.637360 0.770523
vn 0.009312 -0.728921 0.684535
vn 0.009312 -0.728920 0.684536
vn 0.010322 -0.808936 0.587806
vn 0.010322 -0.808937 0.587805
vn 0.011187 -0.876254 0.481719
vn 0.011187 -0.876254 0.481719
vn 0.011873 -0.929715 0.368090
vn 0.011873 -0.929714 0.368090
vn 0.012364 -0.968497 0.248720
vn 0.012364 -0.968497 0.248720
vn 0.012666 -0.992044 0.125255
vn 0.012666 -0.992043 0.125257
vn 0.012769 -0.999919 0.000000
vn 0.012769 -0.999919 0.000000
vn 1.000000 0.000000 0.000000
vn 1.000000 -0.000000 0.000000
vn 1.000000 -0.000000 0.000000
vn 0.000000 0.996527 -0.083269
vn 0.000000 0.996527 -0.083269
vn 0.000000 0.996527 -0.083269
vn 0.000000 0.996527 -0.083269
vn 0.000000 -0.998584 -0.053197
vn 0.000000 -0.998584 -0.053197
vn 0.000000 -0.998584 -0.053197
vn 0.000000 -0.998584 -0.053197
vn 1.000000 -0.000000 0.000000
vn 1.000000 0.000000 0.000000
vn 1.000000 0.000000 0.000000
s 1
g polySurface2
usemtl initialShadingGroup
f 1/1/1 2/2/2 3/3/3 4/4/4
f 2/2/2 5/5/5 6/6/6 3/3/3
f 5/5/5 7/7/7 8/8/8 6/6/6
f 7/7/7 9/9/9 10/10/10 8/8/8
f 9/9/9 11/11/11 12/12/12 10/10/10
f 11/11/11 13/13/13 14/14/14 12/12/12
f 13/13/13 15/15/15 16/16/16 14/14/14
f 15/15/15 17/17/17 18/18/18 16/16/16
f 17/17/17 19/19/19 20/20/20 18/18/18
f 19/19/19 21/21/21 22/22/22 20/20/20
f 21/21/21 23/23/23 24/24/24 22/22/22
f 23/23/23 25/25/25 26/26/26 24/24/24
f 25/25/25 27/27/27 28/28/28 26/26/26
f 27/27/27 29/29/29 30/30/30 28/28/28
f 29/29/29 31/31/31 32/32/32 30/30/30
f 31/31/31 33/33/33 34/34/34 32/32/32
f 33/33/33 35/35/35 36/36/36 34/34/34
f 35/35/35 37/37/37 38/38/38 36/36/36
f 37/37/37 39/39/39 40/40/40 38/38/38
f 39/39/39 41/41/41 42/42/42 40/40/40
f 41/41/41 43/43/43 44/44/44 42/42/42
f 43/43/43 45/45/45 46/46/46 44/44/44
f 45/45/45 47/47/47 48/48/48 46/46/46
f 47/47/47 49/49/49 50/50/50 48/48/48
f 49/49/49 51/51/51 52/52/52 50/50/50
f 51/51/51 53/53/53 54/54/54 52/52/52
f 53/53/53 55/55/55 56/56/56 54/54/54
f 55/55/55 57/57/57 58/58/58 56/56/56
f 57/57/57 59/59/59 60/60/60 58/58/58
f 59/59/59 61/61/61 62/62/62 60/60/60
f 61/61/61 63/63/63 64/64/64 62/62/62
f 63/63/63 65/65/65 66/66/66 64/64/64
f 65/65/65 67/67/67 68/68/68 66/66/66
f 67/67/67 69/69/69 70/70/70 68/68/68
f 69/69/69 71/71/71 72/72/72 70/70/70
f 71/71/71 73/73/73 74/74/74 72/72/72
f 73/73/73 75/75/75 76/76/76 74/74/74
f 75/75/75 77/77/77 78/78/78 76/76/76
f 77/77/77 79/79/79 80/80/80 78/78/78
f 79/79/79 81/81/81 82/82/82 80/80/80
f 81/81/81 83/83/83 84/84/84 82/82/82
f 83/83/83 85/85/85 86/86/86 84/84/84
f 85/85/85 87/87/87 88/88/88 86/86/86
f 87/87/87 89/89/89 90/90/90 88/88/88
f 89/89/89 91/91/91 92/92/92 90/90/90
f 91/91/91 93/93/93 94/94/94 92/92/92
f 93/93/93 95/95/95 96/96/96 94/94/94
f 95/95/95 97/97/97 98/98/98 96/96/96
f 97/97/97 99/99/99 100/100/100 98/98/98
f 99/99/99 1/1/1 4/4/4 100/100/100
f 4/4/4 3/3/3 101/101/101
f 3/3/3 6/6/6 101/101/101
f 6/6/6 8/8/8 101/101/101
f 8/8/8 10/10/10 101/101/101
f 10/10/10 12/12/12 101/101/101
f 12/12/12 14/14/14 101/101/101
f 14/14/14 16/16/16 101/101/101
f 16/16/16 18/18/18 101/101/101
f 18/18/18 20/20/20 101/101/101
f 20/20/20 22/22/22 101/101/101
f 22/22/22 24/24/24 101/101/101
f 24/24/24 26/26/26 101/101/101
f 26/26/26 28/28/28 101/101/101
f 28/28/28 30/30/30 101/101/101
f 30/30/30 32/32/32 101/101/101
f 32/32/32 34/34/34 101/101/101
f 34/34/34 36/36/36 101/101/101
f 36/36/36 38/38/38 101/101/101
f 38/38/38 40/40/40 101/101/101
f 40/40/40 42/42/42 101/101/101
f 42/42/42 44/44/44 101/101/101
f 44/44/44 46/46/46 101/101/101
f 46/46/46 48/48/48 101/101/101
f 48/48/48 50/50/50 101/101/101
f 50/50/50 52/52/52 101/101/101
f 52/52/52 54/54/54 101/101/101
f 54/54/54 56/56/56 101/101/101
f 56/56/56 58/58/58 101/101/101
f 58/58/58 60/60/60 101/101/101
f 60/60/60 62/62/62 101/101/101
f 62/62/62 64/64/64 101/101/101
f 64/64/64 66/66/66 101/101/101
f 66/66/66 68/68/68 101/101/101
f 68/68/68 70/70/70 101/101/101
f 70/70/70 72/72/72 101/101/101
f 72/72/72 74/74/74 101/101/101
f 74/74/74 76/76/76 101/101/101
f 76/76/76 78/78/78 101/101/101
f 78/78/78 80/80/80 101/101/101
f 80/80/80 82/82/82 101/101/101
f 82/82/82 84/84/84 101/101/101
f 84/84/84 86/86/86 101/101/101
f 86/86/86 88/88/88 101/101/101
f 88/88/88 90/90/90 101/101/101
f 90/90/90 92/92/92 101/101/101
f 92/92/92 94/94/94 101/101/101
f 94/94/94 96/96/96 101/101/101
f 96/96/96 98/98/98 101/101/101
f 98/98/98 100/100/100 101/101/101
f 100/100/100 4/4/4 101/101/101
s 2
f 102/102/102 103/103/103 2/104/104 1/105/105
f 103/103/103 104/106/106 5/107/107 2/104/104
f 104/106/106 105/108/108 7/109/109 5/107/107
f 105/108/108 106/110/110 9/111/111 7/109/109
f 106/110/110 107/112/112 11/113/113 9/111/111
f 107/112/112 108/114/114 13/115/115 11/113/113
f 108/114/114 109/116/116 15/117/117 13/115/115
f 109/118/116 110/119/118 17/120/119 15/121/117
f 110/119/118 111/122/120 19/123/121 17/120/119
f 111/122/120 112/124/122 21/125/123 19/123/121
f 112/124/122 113/126/124 23/127/125 21/125/123
f 113/126/124 114/128/126 25/129/127 23/127/125
f 114/128/126 115/130/128 27/131/129 25/129/127
f 115/130/128 116/132/130 29/133/131 27/131/129
f 116/132/130 117/134/132 31/135/133 29/133/131
f 117/134/132 118/136/134 33/137/135 31/135/133
f 118/138/134 119/139/136 35/140/137 33/141/135
f 119/139/136 120/142/138 37/143/139 35/140/137
f 120/142/138 121/144/140 39/145/141 37/143/139
f 121/144/140 122/146/142 41/147/143 39/145/141
f 122/146/142 123/148/144 43/149/145 41/147/143
f 123/148/144 124/150/146 45/151/147 43/149/145
f 124/150/146 125/152/148 47/153/149 45/151/147
f 125/152/148 126/154/150 49/155/151 47/153/149
f 126/154/150 127/156/152 51/157/153 49/155/151
f 127/156/152 128/158/154 53/159/155 51/157/153
f 128/158/154 129/160/156 55/161/157 53/159/155
f 129/160/156 130/162/158 57/163/159 55/161/157
f 130/162/158 131/164/160 59/165/161 57/163/159
f 131/164/160 132/166/162 61/167/163 59/165/161
f 132/166/162 133/168/164 63/169/165 61/167/163
f 133/168/164 134/170/166 65/171/167 63/169/165
f 134/172/166 135/173/168 67/174/169 65/175/167
f 135/173/168 136/176/170 69/177/171 67/174/169
f 136/176/170 137/178/172 71/179/173 69/177/171
f 137/178/172 138/180/174 73/181/175 71/179/173
f 138/180/174 139/182/176 75/183/177 73/181/175
f 139/182/176 140/184/178 77/185/179 75/183/177
f 140/184/178 141/186/180 79/187/181 77/185/179
f 141/186/180 142/188/182 81/189/183 79/187/181
f 142/188/182 143/190/184 83/191/185 81/189/183
f 143/192/184 144/193/186 85/194/187 83/195/185
f 144/193/186 145/196/188 87/197/189 85/194/187
f 145/196/188 146/198/190 89/199/191 87/197/189
f 146/198/190 147/200/192 91/201/193 89/199/191
f 147/200/192 148/202/194 93/203/195 91/201/193
f 148/202/194 149/204/196 95/205/197 93/203/195
f 149/204/196 150/206/198 97/207/199 95/205/197
f 150/206/198 151/208/200 99/209/201 97/207/199
f 151/208/200 102/102/102 1/105/105 99/209/201
s 3
f 154/210/202 155/211/203 153/212/204
s off
f 152/213/205 156/214/206 154/215/207 153/216/208
f 158/217/209 152/218/210 153/219/211 157/220/212
s 3
f 153/212/204 159/221/213 160/222/214
f 153/212/204 160/222/214 157/223/215
f 153/212/204 155/211/203 159/221/213
