# This file uses centimeters as units for non-parametric coordinates.

mtllib hud_tourelle_5.mtl
g default
v 230.550858 -0.000244 -27.508928
v -230.550858 461.101807 -27.508928
v 230.550858 461.101807 -27.508928
v -230.550858 0.000000 -27.508928
v -198.772568 350.791809 1.379456
v -198.772568 26.515259 1.379456
v 198.772568 26.515259 1.379445
v 198.772568 350.791809 1.379445
v -227.650925 2.899933 1.379446
v 227.650925 2.899719 1.379445
v 201.672562 23.615295 1.379445
v -201.672562 23.615295 1.379447
v 227.650925 458.201660 1.379445
v 201.672562 353.691833 1.379445
v -227.650925 458.201660 1.379445
v -201.672562 353.691833 1.379456
v -230.550858 0.000000 11.479452
v 230.550858 -0.000244 11.479452
v 227.650925 2.899719 11.479452
v -227.650925 2.899933 11.479452
v 227.650925 458.201660 11.479452
v 230.550858 461.101807 11.479452
v -230.550858 461.101807 11.479452
v -227.650925 458.201660 11.479452
v 179.090347 350.791809 1.379445
v 179.090347 26.515259 1.379445
v 179.090347 26.515259 7.179449
v 198.772568 26.515259 7.179449
v 201.672562 23.615295 7.179449
v 198.772568 350.791809 7.179449
v 201.672562 353.691833 7.179449
v -198.772568 350.791809 7.179449
v 179.090347 350.791809 7.179449
v -201.672577 353.691833 7.179449
v -198.772583 26.515259 7.179449
v -201.672562 23.615295 7.179449
v 181.703674 254.209167 5.559223
v 196.689880 254.209167 5.559223
v 181.703674 348.173889 5.559223
v 196.689880 348.173889 5.559223
v 181.703674 348.173889 -7.368790
v 196.689880 348.173889 -7.368790
v 181.703674 254.209167 -7.368790
v 196.689880 254.209167 -7.368790
v 182.802750 256.115356 5.559223
v 195.590820 256.115356 5.559223
v 195.590820 346.267700 5.559223
v 182.802750 346.267700 5.559223
v 197.223114 439.866455 -1.651137
v -208.277313 439.866455 -1.651137
v 197.223114 375.806702 -1.651137
v -208.277313 375.806702 -1.651137
v 197.223114 375.806702 10.490837
v -208.277313 375.806702 10.490837
v 197.223114 439.866455 10.490837
v -208.277313 439.866455 10.490837
v 194.388885 379.159119 10.490837
v 91.388000 379.159119 10.490837
v 91.388000 436.514099 10.490837
v 194.388885 436.514099 10.490837
v 194.388885 379.159119 20.601560
v 91.388000 379.159119 20.601560
v 91.388000 436.514099 20.601560
v 194.388885 436.514099 20.601560
v -181.853470 278.282227 18.160711
v 169.456589 278.282227 18.160711
v -181.853470 338.913818 18.160711
v 169.456589 338.913818 18.160711
v -181.853470 338.913818 2.390267
v 169.456589 338.913818 2.390267
v -181.853470 278.282227 2.390267
v 169.456589 278.282227 2.390267
v 66.830841 282.282104 18.160711
v 165.456589 282.282104 18.160711
v 165.456589 334.913818 18.160711
v 66.830841 334.913818 18.160711
v 66.830841 282.282104 27.508928
v 165.456589 282.282104 27.508928
v 165.456589 334.913818 27.508928
v 66.830841 334.913818 27.508928
vt 0.001992 0.414042
vt 0.001992 0.001721
vt 0.036856 0.001721
vt 0.036856 0.414042
vt 0.628583 0.417131
vt 0.628583 0.824259
vt 0.619551 0.824259
vt 0.619551 0.417131
vt 0.496118 0.001721
vt 0.496118 0.414042
vt 0.461254 0.414042
vt 0.461254 0.001721
vt 0.605871 0.824345
vt 0.605871 0.417214
vt 0.614903 0.417214
vt 0.614903 0.824345
vt 0.365493 0.712203
vt 0.365493 0.422237
vt 0.370679 0.422237
vt 0.370679 0.712203
vt 0.360907 0.422657
vt 0.360907 0.717809
vt 0.355721 0.717809
vt 0.355721 0.422657
vt 0.380451 0.422235
vt 0.380451 0.712199
vt 0.375264 0.712199
vt 0.375264 0.422235
vt 0.566785 0.715864
vt 0.566785 0.420710
vt 0.571972 0.420710
vt 0.571972 0.715864
vt 0.412396 0.706750
vt 0.423956 0.706750
vt 0.423956 0.790771
vt 0.412396 0.790771
vt 0.412396 0.616857
vt 0.423956 0.616857
vt 0.423956 0.700879
vt 0.412396 0.700879
vt 0.443665 0.837039
vt 0.443665 0.779758
vt 0.454522 0.779758
vt 0.454522 0.837039
vt 0.562877 0.797023
vt 0.562877 0.739742
vt 0.573734 0.739742
vt 0.573734 0.797023
vt 0.043032 0.782364
vt 0.052073 0.782364
vt 0.052073 0.833647
vt 0.043032 0.833647
vt 0.390168 0.832640
vt 0.381127 0.832640
vt 0.381127 0.781355
vt 0.390168 0.781355
vt 0.500340 0.414042
vt 0.500340 0.001721
vt 0.535203 0.001721
vt 0.535203 0.414042
vt 0.601223 0.417352
vt 0.601223 0.824485
vt 0.592191 0.824485
vt 0.592191 0.417352
vt 0.574289 0.001721
vt 0.574289 0.414042
vt 0.539425 0.414042
vt 0.539425 0.001721
vt 0.578511 0.824443
vt 0.578511 0.417309
vt 0.587542 0.417309
vt 0.587542 0.824443
vt 0.464486 0.421993
vt 0.464486 0.439593
vt 0.459300 0.439593
vt 0.459300 0.421993
vt 0.464486 0.777471
vt 0.459300 0.777471
vt 0.973278 0.773551
vt 0.973278 0.435672
vt 0.978465 0.435672
vt 0.978465 0.773551
vt 0.973278 0.418073
vt 0.978465 0.418073
vt 0.998008 0.368323
vt 0.998008 0.728987
vt 0.992822 0.728987
vt 0.992822 0.368323
vt 0.992822 0.362839
vt 0.992822 0.002173
vt 0.998008 0.002173
vt 0.998008 0.362839
vt 0.428031 0.797515
vt 0.428031 0.784117
vt 0.439589 0.784117
vt 0.439589 0.797515
vt 0.408487 0.810111
vt 0.408487 0.796714
vt 0.420045 0.796714
vt 0.420045 0.810111
vt 0.635185 0.415344
vt 0.646043 0.415344
vt 0.646043 0.777945
vt 0.635185 0.777945
vt 0.652774 0.415339
vt 0.663631 0.415339
vt 0.663631 0.777937
vt 0.652774 0.777937
vt 0.441711 0.422469
vt 0.450752 0.422469
vt 0.450752 0.514571
vt 0.441711 0.514571
vt 0.448797 0.613980
vt 0.439757 0.613980
vt 0.439757 0.521880
vt 0.448797 0.521880
vt 0.291964 0.437775
vt 0.001992 0.437775
vt 0.001992 0.420175
vt 0.291964 0.420175
vt 0.291964 0.775664
vt 0.001992 0.775664
vt 0.578511 0.002468
vt 0.985647 0.002468
vt 0.962417 0.020992
vt 0.601741 0.020992
vt 0.985647 0.409603
vt 0.962417 0.316150
vt 0.601741 0.316150
vt 0.578511 0.409603
vt 0.043032 0.003580
vt 0.455353 0.003579
vt 0.452760 0.006173
vt 0.045625 0.006173
vt 0.455353 0.415901
vt 0.452760 0.413307
vt 0.045625 0.413307
vt 0.043032 0.415901
vt 0.672956 0.418974
vt 0.672956 0.436574
vt 0.670362 0.416381
vt 0.672956 0.774456
vt 0.670362 0.777050
vt 0.962922 0.418974
vt 0.965515 0.416381
vt 0.962922 0.774456
vt 0.965515 0.777050
vt 0.962922 0.436574
vt 0.429013 0.622471
vt 0.440448 0.622471
vt 0.440448 0.703084
vt 0.429013 0.703084
vt 0.428031 0.620766
vt 0.441431 0.620766
vt 0.441431 0.704788
vt 0.428031 0.704788
vt 0.385036 0.422226
vt 0.436323 0.422226
vt 0.436323 0.514330
vt 0.385036 0.514330
vt 0.997788 0.786562
vt 0.995253 0.789559
vt 0.903149 0.789559
vt 0.635185 0.786562
vt 0.903149 0.840847
vt 0.635185 0.843844
vt 0.995253 0.840847
vt 0.997788 0.843844
vt 0.001992 0.781126
vt 0.016094 0.781126
vt 0.016094 0.835342
vt 0.001992 0.835342
vt 0.021535 0.781096
vt 0.035636 0.781096
vt 0.035636 0.835309
vt 0.021535 0.835309
vt 0.262455 0.783014
vt 0.262455 0.830072
vt 0.254097 0.830072
vt 0.254097 0.783014
vt 0.394807 0.832022
vt 0.394807 0.784963
vt 0.403165 0.784963
vt 0.403165 0.832022
vt 0.527700 0.734291
vt 0.527700 0.420148
vt 0.541802 0.420148
vt 0.541802 0.734291
vt 0.547243 0.734290
vt 0.547243 0.420147
vt 0.561344 0.420147
vt 0.561344 0.734290
vt 0.398716 0.707157
vt 0.398716 0.618969
vt 0.407075 0.618969
vt 0.407075 0.707157
vt 0.393395 0.618970
vt 0.393395 0.707158
vt 0.385036 0.707158
vt 0.385036 0.618970
vt 0.385036 0.611425
vt 0.385036 0.523233
vt 0.432099 0.523233
vt 0.432099 0.611425
vt 0.469071 0.734294
vt 0.469071 0.420149
vt 0.523288 0.420149
vt 0.523288 0.734294
vt 0.297092 0.736247
vt 0.297092 0.422102
vt 0.300668 0.425679
vt 0.300668 0.513871
vt 0.351309 0.422102
vt 0.347732 0.425679
vt 0.351309 0.736247
vt 0.347732 0.513871
vn 0.000000 0.000000 1.000000
vn 0.000000 0.000000 1.000000
vn 0.000000 0.000000 1.000000
vn 0.000000 0.000000 1.000000
vn 0.000000 -0.000000 1.000000
vn 0.000000 -0.000000 1.000000
vn 0.000000 -0.000000 1.000000
vn 0.000000 -0.000000 1.000000
vn -0.000000 -0.000000 1.000000
vn -0.000000 -0.000000 1.000000
vn -0.000000 -0.000000 1.000000
vn -0.000000 -0.000000 1.000000
vn 0.000000 0.000000 1.000000
vn 0.000000 0.000000 1.000000
vn 0.000000 0.000000 1.000000
vn 0.000000 0.000000 1.000000
vn 0.000000 0.000000 1.000000
vn 0.000000 0.000000 1.000000
vn 0.000000 0.000000 1.000000
vn 0.000000 0.000000 1.000000
vn 0.000000 0.000000 1.000000
vn 0.000000 0.000000 1.000000
vn 0.000000 0.000000 1.000000
vn 0.000000 0.000000 1.000000
vn 0.000000 0.000000 1.000000
vn 0.000000 0.000000 1.000000
vn 0.000000 0.000000 1.000000
vn 0.000000 0.000000 1.000000
vn 0.000000 0.000000 1.000000
vn 0.000000 0.000000 1.000000
vn 0.000000 0.000000 1.000000
vn 0.000000 0.000000 1.000000
vn 0.000000 0.000000 1.000000
vn 0.000000 0.000000 1.000000
vn 0.000000 0.000000 1.000000
vn 0.000000 0.000000 1.000000
vn 0.000000 0.000000 1.000000
vn 0.000000 0.000000 1.000000
vn 0.000000 0.000000 1.000000
vn 0.000000 0.000000 1.000000
vn 0.000000 0.000000 1.000000
vn 0.000000 0.000000 1.000000
vn 0.000000 0.000000 1.000000
vn -0.000000 0.000000 1.000000
vn -0.000000 0.000000 1.000000
vn -0.000000 0.000000 1.000000
vn -0.000000 0.000000 1.000000
vn 0.000000 0.000000 1.000000
vn 0.000000 0.000000 1.000000
vn 0.000000 0.000000 1.000000
vn 0.000000 0.000000 1.000000
vn -0.000001 -1.000000 0.000000
vn -0.000001 -1.000000 0.000000
vn -0.000001 -1.000000 0.000000
vn -0.000001 -1.000000 0.000000
vn 0.000000 1.000000 0.000000
vn 0.000000 1.000000 0.000000
vn 0.000000 1.000000 0.000000
vn 0.000000 1.000000 0.000000
vn 0.000000 1.000000 0.000000
vn 0.000000 1.000000 0.000000
vn 0.000000 1.000000 0.000000
vn 0.000000 1.000000 0.000000
vn 0.000000 -1.000000 0.000000
vn 0.000000 -1.000000 0.000000
vn 0.000000 -1.000000 0.000000
vn 0.000000 -1.000000 0.000000
vn -1.000000 0.000000 0.000000
vn -1.000000 0.000000 0.000000
vn -1.000000 0.000000 0.000000
vn -1.000000 0.000000 0.000000
vn 1.000000 0.000000 0.000000
vn 1.000000 0.000000 0.000000
vn 1.000000 0.000000 0.000000
vn 1.000000 0.000000 0.000000
vn 1.000000 0.000000 0.000000
vn 1.000000 0.000000 0.000000
vn 1.000000 0.000000 0.000000
vn 1.000000 0.000000 0.000000
vn -1.000000 0.000000 0.000000
vn -1.000000 0.000000 0.000000
vn -1.000000 0.000000 0.000000
vn -1.000000 0.000000 0.000000
vn 0.000000 0.000000 1.000000
vn 0.000000 0.000000 1.000000
vn 0.000000 0.000000 1.000000
vn 0.000000 0.000000 1.000000
vn 0.000000 0.000000 1.000000
vn 0.000000 0.000000 1.000000
vn 0.000000 0.000000 1.000000
vn 0.000000 0.000000 1.000000
vn 0.000000 0.000000 1.000000
vn 0.000000 0.000000 1.000000
vn 0.000000 0.000000 1.000000
vn 0.000000 1.000000 0.000000
vn 0.000000 1.000000 0.000000
vn 0.000000 1.000000 0.000000
vn 0.000000 1.000000 0.000000
vn -1.000000 0.000000 0.000000
vn -1.000000 0.000000 0.000000
vn -1.000000 0.000000 0.000000
vn -1.000000 0.000000 0.000000
vn 1.000000 0.000000 0.000000
vn 1.000000 0.000000 0.000000
vn 1.000000 0.000000 0.000000
vn 1.000000 0.000000 0.000000
vn 0.000000 -1.000000 0.000000
vn 0.000000 -1.000000 0.000000
vn 0.000000 -1.000000 0.000000
vn 0.000000 -1.000000 0.000000
vn 0.000000 1.000000 -0.000013
vn 0.000000 1.000000 -0.000013
vn 0.000000 1.000000 -0.000013
vn 0.000000 1.000000 -0.000013
vn 1.000000 -0.000000 0.000001
vn 1.000000 -0.000000 0.000001
vn 1.000000 -0.000000 0.000001
vn 1.000000 -0.000000 0.000001
vn -1.000000 -0.000000 -0.000001
vn -1.000000 -0.000000 -0.000001
vn -1.000000 -0.000000 -0.000001
vn -1.000000 -0.000000 -0.000001
vn 0.000000 1.000000 0.000004
vn 0.000000 1.000000 0.000004
vn 0.000000 1.000000 0.000004
vn 0.000000 1.000000 0.000004
vn 0.000000 -1.000000 0.000000
vn 0.000000 -1.000000 0.000000
vn 0.000000 -1.000000 0.000000
vn 0.000000 -1.000000 0.000000
vn 0.000000 -1.000000 0.000000
vn 0.000000 -1.000000 0.000000
vn 0.000000 -1.000000 0.000000
vn 0.000000 -1.000000 0.000000
vn 0.000000 0.000000 1.000000
vn 0.000000 0.000000 1.000000
vn 0.000000 0.000000 1.000000
vn 0.000000 0.000000 1.000000
vn 0.000000 1.000000 0.000000
vn 0.000000 1.000000 0.000000
vn 0.000000 1.000000 0.000000
vn 0.000000 1.000000 0.000000
vn 0.000000 -1.000000 0.000000
vn 0.000000 -1.000000 0.000000
vn 0.000000 -1.000000 0.000000
vn 0.000000 -1.000000 0.000000
vn 1.000000 0.000000 0.000000
vn 1.000000 0.000000 0.000000
vn 1.000000 0.000000 0.000000
vn 1.000000 0.000000 0.000000
vn -1.000000 0.000000 0.000000
vn -1.000000 0.000000 0.000000
vn -1.000000 0.000000 0.000000
vn -1.000000 0.000000 0.000000
vn 0.000000 0.000000 1.000000
vn 0.000000 0.000000 1.000000
vn 0.000000 0.000000 1.000000
vn 0.000000 0.000000 1.000000
vn -0.000001 0.000000 1.000000
vn -0.000001 0.000000 1.000000
vn -0.000001 0.000000 1.000000
vn -0.000001 0.000000 1.000000
vn 0.000000 0.000000 1.000000
vn 0.000000 0.000000 1.000000
vn 0.000000 0.000000 1.000000
vn 0.000000 0.000000 1.000000
vn 0.000001 0.000000 1.000000
vn 0.000001 0.000000 1.000000
vn 0.000001 0.000000 1.000000
vn 0.000001 0.000000 1.000000
vn 0.000000 -1.000000 0.000000
vn 0.000000 -1.000000 0.000000
vn 0.000000 -1.000000 0.000000
vn 0.000000 -1.000000 0.000000
vn 0.000000 0.000000 1.000000
vn 0.000000 0.000000 1.000000
vn 0.000000 0.000000 1.000000
vn 0.000000 0.000000 1.000000
vn 0.000000 1.000000 0.000000
vn 0.000000 1.000000 0.000000
vn 0.000000 1.000000 0.000000
vn 0.000000 1.000000 0.000000
vn -1.000000 0.000000 0.000000
vn -1.000000 0.000000 0.000000
vn -1.000000 0.000000 0.000000
vn -1.000000 0.000000 0.000000
vn 1.000000 0.000000 0.000000
vn 1.000000 0.000000 0.000000
vn 1.000000 0.000000 0.000000
vn 1.000000 0.000000 0.000000
vn 0.000000 0.000000 1.000000
vn 0.000000 0.000000 1.000000
vn 0.000000 0.000000 1.000000
vn 0.000000 0.000000 1.000000
vn -0.000000 0.000000 1.000000
vn -0.000000 0.000000 1.000000
vn -0.000000 0.000000 1.000000
vn -0.000000 0.000000 1.000000
vn 0.000000 0.000000 1.000000
vn 0.000000 0.000000 1.000000
vn 0.000000 0.000000 1.000000
vn 0.000000 0.000000 1.000000
vn 0.000001 0.000000 1.000000
vn 0.000001 0.000000 1.000000
vn 0.000001 0.000000 1.000000
vn 0.000001 0.000000 1.000000
vn 0.000000 -1.000000 0.000000
vn 0.000000 -1.000000 0.000000
vn 0.000000 -1.000000 0.000000
vn 0.000000 -1.000000 0.000000
vn -1.000000 0.000000 0.000000
vn -1.000000 0.000000 0.000000
vn -1.000000 0.000000 0.000000
vn -1.000000 0.000000 0.000000
vn 0.000000 1.000000 0.000000
vn 0.000000 1.000000 0.000000
vn 0.000000 1.000000 0.000000
vn 0.000000 1.000000 0.000000
vn 1.000000 0.000000 0.000000
vn 1.000000 0.000000 0.000000
vn 1.000000 0.000000 0.000000
vn 1.000000 0.000000 0.000000
vn 0.000000 0.000000 1.000000
vn 0.000000 0.000000 1.000000
vn 0.000000 0.000000 1.000000
vn 0.000000 0.000000 1.000000
vn 0.000000 1.000000 0.000000
vn 0.000000 1.000000 0.000000
vn 0.000000 1.000000 0.000000
vn 0.000000 1.000000 0.000000
vn 0.000000 0.000000 -1.000000
vn 0.000000 0.000000 -1.000000
vn 0.000000 0.000000 -1.000000
vn 0.000000 0.000000 -1.000000
vn 0.000000 -1.000000 0.000000
vn 0.000000 -1.000000 0.000000
vn 0.000000 -1.000000 0.000000
vn 0.000000 -1.000000 0.000000
vn 1.000000 0.000000 0.000000
vn 1.000000 0.000000 0.000000
vn 1.000000 0.000000 0.000000
vn 1.000000 0.000000 0.000000
vn -1.000000 0.000000 0.000000
vn -1.000000 0.000000 0.000000
vn -1.000000 0.000000 0.000000
vn -1.000000 0.000000 0.000000
vn 0.000000 0.000000 1.000000
vn 0.000000 0.000000 1.000000
vn 0.000000 0.000000 1.000000
vn 0.000000 0.000000 1.000000
vn 0.000000 0.000000 1.000000
vn 0.000000 0.000000 1.000000
vn 0.000000 0.000000 1.000000
vn 0.000000 0.000000 1.000000
vn 0.000000 0.000000 1.000000
vn 0.000000 0.000000 1.000000
vn 0.000000 0.000000 1.000000
vn 0.000000 0.000000 1.000000
vn 0.000000 0.000000 1.000000
vn 0.000000 0.000000 1.000000
vn 0.000000 0.000000 1.000000
vn 0.000000 0.000000 1.000000
vn 0.000000 -1.000000 0.000000
vn 0.000000 -1.000000 0.000000
vn 0.000000 -1.000000 0.000000
vn 0.000000 -1.000000 0.000000
vn 1.000000 0.000000 0.000000
vn 1.000000 0.000000 0.000000
vn 1.000000 0.000000 0.000000
vn 1.000000 0.000000 0.000000
vn 0.000000 1.000000 0.000000
vn 0.000000 1.000000 0.000000
vn 0.000000 1.000000 0.000000
vn 0.000000 1.000000 0.000000
vn -1.000000 0.000000 0.000000
vn -1.000000 0.000000 0.000000
vn -1.000000 0.000000 0.000000
vn -1.000000 0.000000 0.000000
s off
g low1
usemtl initialShadingGroup
f 25/117/1 26/118/2 7/119/3 8/120/4
f 9/123/5 10/124/6 11/125/7 12/126/8
f 16/129/9 15/130/10 9/123/11 12/126/12
f 17/131/13 18/132/14 19/133/15 20/134/16
f 28/139/17 27/140/18 29/141/19
f 30/144/20 28/139/21 29/141/22 31/145/23
f 22/135/24 23/138/25 24/137/26 21/136/27
f 32/146/28 33/148/29 31/145/30 34/147/31
f 24/137/32 23/138/33 17/131/34 20/134/35
f 35/142/36 32/146/37 34/147/38 36/143/39
f 10/124/40 13/127/41 14/128/42 11/125/43
f 18/132/44 22/135/45 21/136/46 19/133/47
f 16/129/48 14/128/49 13/127/50 15/130/51
f 4/57/52 1/58/53 18/59/54 17/60/55
f 10/61/56 9/62/57 20/63/58 19/64/59
f 3/65/60 2/66/61 23/67/62 22/68/63
f 15/69/64 13/70/65 21/71/66 24/72/67
f 2/1/68 4/2/69 17/3/70 23/4/71
f 9/5/72 15/6/73 24/7/74 20/8/75
f 1/9/76 3/10/77 22/11/78 18/12/79
f 13/13/80 10/14/81 19/15/82 21/16/83
f 5/121/84 6/122/85 26/118/86 25/117/87
f 29/141/88 27/140/89 35/142/90 36/143/91
f 31/145/92 33/148/93 30/144/94
f 7/73/95 26/74/96 27/75/97 28/76/98
f 8/17/99 7/18/100 28/19/101 30/20/102
f 11/21/103 14/22/104 31/23/105 29/24/106
f 5/79/107 25/80/108 33/81/109 32/82/110
f 14/85/111 16/86/112 34/87/113 31/88/114
f 6/25/115 5/26/116 32/27/117 35/28/118
f 16/29/119 12/30/120 36/31/121 34/32/122
f 26/74/123 6/77/124 35/78/125 27/75/126
f 12/89/127 11/90/128 29/91/129 36/92/130
f 25/80/131 8/83/132 30/84/133 33/81/134
f 45/149/135 46/150/136 47/151/137 48/152/138
f 39/93/139 40/94/140 42/95/141 41/96/142
f 43/97/143 44/98/144 38/99/145 37/100/146
f 38/33/147 44/34/148 42/35/149 40/36/150
f 43/37/151 37/38/152 39/39/153 41/40/154
f 37/153/155 38/154/156 46/150/157 45/149/158
f 38/154/159 40/155/160 47/151/161 46/150/162
f 40/155/163 39/156/164 48/152/165 47/151/166
f 39/156/167 37/153/168 45/149/169 48/152/170
f 51/101/171 53/102/172 54/103/173 52/104/174
f 61/157/175 64/158/176 63/159/177 62/160/178
f 55/105/179 49/106/180 50/107/181 56/108/182
f 50/41/183 52/42/184 54/43/185 56/44/186
f 55/45/187 53/46/188 51/47/189 49/48/190
f 53/161/191 57/162/192 58/163/193 54/164/194
f 54/164/195 58/163/196 59/165/197 56/166/198
f 56/166/199 59/165/200 60/167/201 55/168/202
f 55/168/203 60/167/204 57/162/205 53/161/206
f 57/109/207 61/110/208 62/111/209 58/112/210
f 58/49/211 62/50/212 63/51/213 59/52/214
f 59/113/215 63/114/216 64/115/217 60/116/218
f 60/53/219 64/54/220 61/55/221 57/56/222
f 77/201/223 78/202/224 79/203/225 80/204/226
f 67/185/227 68/186/228 70/187/229 69/188/230
f 69/205/231 70/206/232 72/207/233 71/208/234
f 71/189/235 72/190/236 66/191/237 65/192/238
f 66/169/239 72/170/240 70/171/241 68/172/242
f 71/173/243 65/174/244 67/175/245 69/176/246
f 65/209/247 66/210/248 74/211/249 73/212/250
f 66/210/251 68/213/252 75/214/253 74/211/254
f 68/213/255 67/215/256 76/216/257 75/214/258
f 67/215/259 65/209/260 73/212/261 76/216/262
f 73/193/263 74/194/264 78/195/265 77/196/266
f 74/177/267 75/178/268 79/179/269 78/180/270
f 75/197/271 76/198/272 80/199/273 79/200/274
f 76/181/275 73/182/276 77/183/277 80/184/278
