# File produced by Open Asset Import Library (http://www.assimp.sf.net)
# (assimp v3.1.179037358)

mtllib update_ui.mtl

# 93 vertex positions
v  198.773 350.792 1.37944
v  179.09 350.792 1.37944
v  179.09 26.5153 1.37944
v  198.773 26.5153 1.37944
v  -201.673 23.6153 1.37945
v  -227.651 2.89993 1.37945
v  227.651 2.8997 1.37944
v  201.673 23.6153 1.37944
v  -201.673 353.692 1.37946
v  -227.651 458.202 1.37944
v  -227.651 2.89993 11.4795
v  -230.551 0 11.4795
v  230.551 -0.000244141 11.4795
v  227.651 2.8997 11.4795
v  198.773 26.5153 7.17945
v  179.09 26.5153 7.17945
v  201.673 23.6153 7.17945
v  201.673 353.692 7.17945
v  198.773 350.792 7.17945
v  227.651 458.202 11.4795
v  230.551 461.102 11.4795
v  -230.551 461.102 11.4795
v  -227.651 458.202 11.4795
v  -201.673 353.692 7.17945
v  -198.773 350.792 7.17945
v  179.09 350.792 7.17945
v  -201.673 23.6153 7.17945
v  -198.773 26.5153 7.17945
v  227.651 458.202 1.37944
v  201.673 353.692 1.37944
v  -230.551 0 -27.5089
v  230.551 -0.000244141 -27.5089
v  230.551 461.102 -27.5089
v  -230.551 461.102 -27.5089
v  -198.773 350.792 1.37946
v  -198.773 26.5153 1.37946
v  182.803 346.268 5.55922
v  182.803 256.115 5.55922
v  195.591 256.115 5.55922
v  195.591 346.268 5.55922
v  181.704 348.174 -7.36879
v  181.704 348.174 5.55922
v  196.69 348.174 5.55922
v  196.69 348.174 -7.36879
v  181.704 254.209 5.55922
v  181.704 254.209 -7.36879
v  196.69 254.209 -7.36879
v  196.69 254.209 5.55922
v  -208.277 375.807 -1.65114
v  197.223 375.807 -1.65114
v  197.223 375.807 10.4908
v  -208.277 375.807 10.4908
v  142.319 379.159 20.6016
v  194.389 379.159 20.6016
v  194.389 436.514 20.6016
v  142.319 436.514 20.6016
v  -208.277 439.866 10.4908
v  197.223 439.866 10.4908
v  197.223 439.866 -1.65114
v  -208.277 439.866 -1.65114
v  194.389 379.159 10.4908
v  70.9134 379.159 10.4908
v  70.9134 436.514 10.4908
v  194.389 436.514 10.4908
v  70.9134 379.159 20.6016
v  70.9134 436.514 20.6016
v  140.648 436.514 20.6016
v  165.457 334.914 27.5089
v  118.804 334.914 27.5089
v  118.804 282.282 27.5089
v  165.457 282.282 27.5089
v  -181.853 338.914 2.39027
v  -181.853 338.914 18.1607
v  169.457 338.914 18.1607
v  169.457 338.914 2.39027
v  -181.853 278.282 2.39027
v  169.457 278.282 2.39027
v  -181.853 278.282 18.1607
v  169.457 278.282 18.1607
v  119.212 282.282 18.1607
v  165.457 282.282 18.1607
v  165.457 334.914 18.1607
v  116.895 334.914 18.1607
v  54.2399 334.914 18.1607
v  54.2399 282.282 18.1607
v  54.2399 334.914 27.5089
v  117.302 334.914 27.5089
v  54.2399 282.282 27.5089
v  140.648 379.159 20.6016
v  141.985 379.159 20.6016
v  117.302 282.282 27.5089
v  119.212 334.914 18.1607
v  116.895 282.282 18.1607

# 209 UV coordinates
vt 0.641696 0.674158 0
vt 0.641696 0.690192 0
vt 0.377532 0.690192 0
vt 0.377532 0.674158 0
vt 0.022884 0.400714 0
vt 0.001722 0.383839 0
vt 0.372622 0.383839 0
vt 0.351459 0.400714 0
vt 0.022884 0.669603 0
vt 0.001722 0.754739 0
vt 0.149668 0.004632 0
vt 0.147306 0.00227 0
vt 0.522927 0.002269 0
vt 0.520564 0.004632 0
vt 0.576264 0.341756 0
vt 0.576264 0.357789 0
vt 0.573902 0.339393 0
vt 0.842784 0.339393 0
vt 0.840421 0.341756 0
vt 0.520564 0.375528 0
vt 0.522927 0.37789 0
vt 0.147306 0.37789 0
vt 0.149668 0.375528 0
vt 0.842784 0.66796 0
vt 0.840421 0.665597 0
vt 0.840421 0.357789 0
vt 0.573902 0.66796 0
vt 0.576264 0.665597 0
vt 0.372622 0.754739 0
vt 0.351459 0.669603 0
vt 0.033482 0.377893 0
vt 0.001722 0.377893 0
vt 0.001722 0.002269 0
vt 0.033482 0.002269 0
vt 0.538352 0.00303 0
vt 0.54658 0.00303 0
vt 0.54658 0.373925 0
vt 0.538352 0.373925 0
vt 0.111756 0.002269 0
vt 0.143517 0.002269 0
vt 0.143517 0.377893 0
vt 0.111756 0.377893 0
vt 0.53473 0.373886 0
vt 0.526502 0.373886 0
vt 0.526502 0.002989 0
vt 0.53473 0.002989 0
vt 0.069032 0.377893 0
vt 0.037271 0.377893 0
vt 0.037271 0.002269 0
vt 0.069032 0.002269 0
vt 0.562052 0.002832 0
vt 0.57028 0.002832 0
vt 0.57028 0.37372 0
vt 0.562052 0.37372 0
vt 0.074514 0.002269 0
vt 0.106275 0.002269 0
vt 0.106275 0.377893 0
vt 0.074514 0.377893 0
vt 0.55843 0.373795 0
vt 0.550202 0.373795 0
vt 0.550202 0.002901 0
vt 0.55843 0.002901 0
vt 0.641696 0.998008 0
vt 0.377532 0.998008 0
vt 0.609452 0.013049 0
vt 0.614177 0.013049 0
vt 0.614177 0.029082 0
vt 0.609452 0.029082 0
vt 0.790232 0.335841 0
vt 0.785507 0.335841 0
vt 0.785507 0.071687 0
vt 0.790232 0.071687 0
vt 0.768579 0.067535 0
vt 0.773303 0.067535 0
vt 0.773303 0.336411 0
vt 0.768579 0.336411 0
vt 0.859638 0.32583 0
vt 0.854913 0.32583 0
vt 0.854913 0.018025 0
vt 0.859638 0.018025 0
vt 0.846449 0.003752 0
vt 0.851174 0.003752 0
vt 0.851174 0.332314 0
vt 0.846449 0.332314 0
vt 0.777043 0.071691 0
vt 0.781768 0.071691 0
vt 0.781768 0.335847 0
vt 0.777043 0.335847 0
vt 0.764839 0.336847 0
vt 0.760115 0.336847 0
vt 0.760115 0.067956 0
vt 0.764839 0.067956 0
vt 0.614177 0.336887 0
vt 0.609452 0.336887 0
vt 0.605712 0.331252 0
vt 0.600987 0.331252 0
vt 0.600987 0.002681 0
vt 0.605712 0.002681 0
vt 0.854913 0.001992 0
vt 0.859638 0.001992 0
vt 0.807898 0.325501 0
vt 0.805472 0.252122 0
vt 0.815868 0.251779 0
vt 0.818298 0.325163 0
vt 0.807392 0.337615 0
vt 0.807054 0.327083 0
vt 0.819242 0.326688 0
vt 0.819589 0.33721 0
vt 0.804525 0.2506 0
vt 0.804163 0.24008 0
vt 0.816361 0.239678 0
vt 0.81671 0.2502 0
vt 0.827224 0.24984 0
vt 0.82977 0.326352 0
vt 0.796503 0.327447 0
vt 0.793972 0.250961 0
vt 0.587445 0.333705 0
vt 0.587445 0.003381 0
vt 0.597336 0.003381 0
vt 0.597336 0.333705 0
vt 0.700935 0.703953 0
vt 0.735585 0.679484 0
vt 0.762535 0.717652 0
vt 0.727886 0.742119 0
vt 0.573902 0.333709 0
vt 0.573902 0.00338 0
vt 0.583793 0.00338 0
vt 0.583793 0.333709 0
vt 0.83264 0.242112 0
vt 0.82275 0.242112 0
vt 0.82275 0.189932 0
vt 0.83264 0.189932 0
vt 0.842797 0.29941 0
vt 0.832907 0.29941 0
vt 0.832907 0.247228 0
vt 0.842797 0.247228 0
vt 0.001722 0.761329 0
vt 0.331997 0.760197 0
vt 0.329656 0.762965 0
vt 0.229128 0.763281 0
vt 0.001901 0.813498 0
vt 0.229282 0.810015 0
vt 0.332165 0.812406 0
vt 0.329847 0.809683 0
vt 0.673642 0.780422 0
vt 0.646694 0.742258 0
vt 0.653419 0.737509 0
vt 0.680369 0.775672 0
vt 0.68512 0.7824 0
vt 0.726774 0.742904 0
vt 0.742313 0.674733 0
vt 0.769264 0.712901 0
vt 0.854945 0.7837 0
vt 0.816939 0.78369 0
vt 0.816948 0.740812 0
vt 0.854948 0.740817 0
vt 0.756033 0.336319 0
vt 0.743186 0.336319 0
vt 0.743186 0.050137 0
vt 0.756033 0.050137 0
vt 0.721479 0.336642 0
vt 0.672087 0.336642 0
vt 0.672087 0.050456 0
vt 0.721479 0.050456 0
vt 0.739105 0.336321 0
vt 0.726258 0.336321 0
vt 0.726258 0.050137 0
vt 0.739105 0.050137 0
vt 0.793972 0.234127 0
vt 0.793972 0.184737 0
vt 0.806818 0.184737 0
vt 0.806818 0.234127 0
vt 0.829521 0.184597 0
vt 0.829521 0.135208 0
vt 0.842368 0.135208 0
vt 0.842368 0.184597 0
vt 0.621174 0.090982 0
vt 0.617916 0.050052 0
vt 0.621174 0.05331 0
vt 0.667307 0.05005 0
vt 0.664049 0.053308 0
vt 0.664049 0.092868 0
vt 0.667308 0.336236 0
vt 0.664049 0.143908 0
vt 0.617916 0.336235 0
vt 0.621174 0.143909 0
vt 0.862563 0.740816 0
vt 0.862563 0.783707 0
vt 0.764362 0.783679 0
vt 0.815716 0.783689 0
vt 0.815382 0.791301 0
vt 0.764347 0.791302 0
vt 0.756738 0.783674 0
vt 0.756729 0.740803 0
vt 0.764366 0.740805 0
vt 0.699823 0.704738 0
vt 0.700713 0.70411 0
vt 0.730833 0.672756 0
vt 0.815725 0.740812 0
vt 0.817281 0.733199 0
vt 0.854948 0.7332 0
vt 0.81727 0.791306 0
vt 0.664049 0.09098 0
vt 0.854945 0.79132 0
vt 0.815393 0.733202 0
vt 0.764361 0.733196 0
vt 0.621174 0.092869 0
vt 0.767286 0.72438 0
vt 0.648667 0.730781 0

# 20 vertex normals
vn 0 0 1
vn -1e-06 -1 0
vn 0 1 0
vn 0 -1 0
vn -1 0 0
vn 1 0 0
vn 0 1 -1.3e-05
vn 1 -0 1e-06
vn -1 -0 -1e-06
vn 0 1 4e-06
vn -1e-06 0 1
vn 1e-06 0 1
vn 0 0 -1
vn 0 1 -7e-06
vn 0 1 -6e-06
vn -1e-06 -1 -1.4e-05
vn -1e-06 -1 -1e-05
vn 0 -1 4e-06
vn 0 1 -2e-06
vn 0 -1 -2e-06

# Mesh 'g low1_low1' with 164 faces
g g low1_low1
usemtl initialShadingGroup
f  1/1/1 2/2/1 3/3/1
f  3/3/1 4/4/1 1/1/1
f  5/5/1 6/6/1 7/7/1
f  7/7/1 8/8/1 5/5/1
f  5/5/1 9/9/1 10/10/1
f  10/10/1 6/6/1 5/5/1
f  11/11/1 12/12/1 13/13/1
f  13/13/1 14/14/1 11/11/1
f  15/15/1 16/16/1 17/17/1
f  18/18/1 19/19/1 15/15/1
f  15/15/1 17/17/1 18/18/1
f  20/20/1 21/21/1 22/22/1
f  22/22/1 23/23/1 20/20/1
f  24/24/1 25/25/1 26/26/1
f  26/26/1 18/18/1 24/24/1
f  11/11/1 23/23/1 22/22/1
f  22/22/1 12/12/1 11/11/1
f  27/27/1 28/28/1 25/25/1
f  25/25/1 24/24/1 27/27/1
f  8/8/1 7/7/1 29/29/1
f  29/29/1 30/30/1 8/8/1
f  14/14/1 13/13/1 21/21/1
f  21/21/1 20/20/1 14/14/1
f  10/10/1 9/9/1 30/30/1
f  30/30/1 29/29/1 10/10/1
f  12/31/2 31/32/2 32/33/2
f  32/33/2 13/34/2 12/31/2
f  14/35/3 7/36/3 6/37/3
f  6/37/3 11/38/3 14/35/3
f  21/39/3 33/40/3 34/41/3
f  34/41/3 22/42/3 21/39/3
f  23/43/4 10/44/4 29/45/4
f  29/45/4 20/46/4 23/43/4
f  22/47/5 34/48/5 31/49/5
f  31/49/5 12/50/5 22/47/5
f  11/51/6 6/52/6 10/53/6
f  10/53/6 23/54/6 11/51/6
f  13/55/6 32/56/6 33/57/6
f  33/57/6 21/58/6 13/55/6
f  20/59/5 29/60/5 7/61/5
f  7/61/5 14/62/5 20/59/5
f  2/2/1 35/63/1 36/64/1
f  36/64/1 3/3/1 2/2/1
f  27/27/1 17/17/1 16/16/1
f  16/16/1 28/28/1 27/27/1
f  18/18/1 26/26/1 19/19/1
f  15/65/3 4/66/3 3/67/3
f  3/67/3 16/68/3 15/65/3
f  19/69/5 1/70/5 4/71/5
f  4/71/5 15/72/5 19/69/5
f  17/73/6 8/74/6 30/75/6
f  30/75/6 18/76/6 17/73/6
f  25/77/4 35/78/4 2/79/4
f  2/79/4 26/80/4 25/77/4
f  18/81/7 30/82/7 9/83/7
f  9/83/7 24/84/7 18/81/7
f  28/85/8 36/86/8 35/87/8
f  35/87/8 25/88/8 28/85/8
f  24/89/9 9/90/9 5/91/9
f  5/91/9 27/92/9 24/89/9
f  16/68/3 3/67/3 36/93/10
f  36/93/10 28/94/10 16/68/3
f  27/95/4 5/96/4 8/97/4
f  8/97/4 17/98/4 27/95/4
f  26/80/4 2/79/4 1/99/4
f  1/99/4 19/100/4 26/80/4
f  37/101/1 38/102/1 39/103/1
f  39/103/1 40/104/1 37/101/1
f  41/105/3 42/106/3 43/107/3
f  43/107/3 44/108/3 41/105/3
f  45/109/4 46/110/4 47/111/4
f  47/111/4 48/112/4 45/109/4
f  43/107/6 48/112/6 47/113/6
f  47/113/6 44/114/6 43/107/6
f  41/115/5 46/116/5 45/109/5
f  45/109/5 42/106/5 41/115/5
f  38/102/1 45/109/1 48/112/1
f  48/112/1 39/103/1 38/102/1
f  39/103/11 48/112/11 43/107/11
f  43/107/11 40/104/11 39/103/11
f  40/104/1 43/107/1 42/106/1
f  42/106/1 37/101/1 40/104/1
f  37/101/12 42/106/12 45/109/12
f  45/109/12 38/102/12 37/101/12
f  49/117/4 50/118/4 51/119/4
f  51/119/4 52/120/4 49/117/4
f  53/121/1 54/122/1 55/123/1
f  55/123/1 56/124/1 53/121/1
f  57/125/3 58/126/3 59/127/3
f  59/127/3 60/128/3 57/125/3
f  57/129/5 60/130/5 49/131/5
f  49/131/5 52/132/5 57/129/5
f  59/133/6 58/134/6 51/135/6
f  51/135/6 50/136/6 59/133/6
f  52/137/1 51/138/1 61/139/1
f  61/139/1 62/140/1 52/137/1
f  57/141/1 52/137/1 62/140/1
f  62/140/1 63/142/1 57/141/1
f  58/143/1 57/141/1 63/142/1
f  63/142/1 64/144/1 58/143/1
f  51/138/12 58/143/12 64/144/12
f  64/144/12 61/139/12 51/138/12
f  63/145/5 62/146/5 65/147/5
f  65/147/5 66/148/5 63/145/5
f  63/149/3 66/148/3 67/150/3
f  61/151/6 64/152/6 55/123/6
f  55/123/6 54/122/6 61/151/6
f  68/153/1 69/154/1 70/155/1
f  70/155/1 71/156/1 68/153/1
f  72/157/3 73/158/3 74/159/3
f  74/159/3 75/160/3 72/157/3
f  76/161/13 72/162/13 75/163/13
f  75/163/13 77/164/13 76/161/13
f  78/165/4 76/166/4 77/167/4
f  77/167/4 79/168/4 78/165/4
f  74/169/6 79/170/6 77/171/6
f  77/171/6 75/172/6 74/169/6
f  72/173/5 76/174/5 78/175/5
f  78/175/5 73/176/5 72/173/5
f  80/177/1 79/178/1 81/179/1
f  81/179/1 79/178/1 74/180/1
f  74/180/1 82/181/1 81/179/1
f  83/182/1 74/180/1 73/183/1
f  73/183/1 84/184/1 83/182/1
f  84/184/1 73/183/1 78/185/1
f  78/185/1 85/186/1 84/184/1
f  71/156/6 81/187/6 82/188/6
f  82/188/6 68/153/6 71/156/6
f  86/189/14 87/190/15 83/191/15
f  83/191/15 84/192/14 86/189/14
f  86/189/5 84/193/5 85/194/5
f  85/194/5 88/195/5 86/189/5
f  65/147/1 89/196/1 67/150/1
f  67/150/1 66/148/1 65/147/1
f  53/121/16 90/197/4 61/198/17
f  61/198/17 54/122/16 53/121/16
f  86/189/1 88/195/1 91/199/1
f  91/199/1 87/190/1 86/189/1
f  71/156/18 70/155/18 80/200/18
f  80/200/18 81/201/18 71/156/18
f  53/121/1 56/124/1 67/150/1
f  67/150/1 89/196/1 90/197/1
f  67/150/1 90/197/1 53/121/1
f  70/155/1 69/154/1 87/190/1
f  87/190/1 91/199/1 70/155/1
f  87/190/15 69/154/19 92/202/19
f  92/202/19 83/191/15 87/190/15
f  74/180/1 83/182/1 92/203/1
f  92/202/19 69/154/19 68/153/19
f  68/153/19 82/204/19 92/202/19
f  74/180/1 92/203/1 82/181/1
f  93/205/20 91/199/20 88/195/20
f  88/195/20 85/206/20 93/205/20
f  85/186/1 78/185/1 79/178/1
f  79/178/1 93/207/1 85/186/1
f  70/155/18 91/199/20 93/205/20
f  93/205/20 80/200/18 70/155/18
f  93/207/1 79/178/1 80/177/1
f  64/208/3 63/149/3 67/150/3
f  67/150/3 56/124/3 64/208/3
f  64/208/3 56/124/3 55/123/3
f  90/197/4 89/196/4 62/209/4
f  62/209/4 61/198/17 90/197/4
f  89/196/4 65/147/4 62/209/4

